<svg width="24" height="24" viewBox="0 0 24 24" fill="none" xmlns="http://www.w3.org/2000/svg">
<path d="M9.25 10.75H14.75C14.8839 10.75 15 10.8661 15 11C15 11.1339 14.8839 11.25 14.75 11.25H9.25C9.11614 11.25 9 11.1339 9 11C9 10.8661 9.11614 10.75 9.25 10.75Z" fill="#353535" stroke="#AEAEAE"/>
<path d="M12 8C12.1339 8 12.25 8.11614 12.25 8.25V13.75C12.25 13.8839 12.1339 14 12 14C11.8661 14 11.75 13.8839 11.75 13.75V8.25C11.75 8.11614 11.8661 8 12 8Z" fill="#353535" stroke="#AEAEAE"/>
<path d="M12.0003 1.75H12.0101C15.5665 1.75003 19.5858 3.83209 20.6321 8.4502C21.7909 13.5695 18.7047 17.9168 15.7845 20.7285C14.7197 21.7474 13.3543 22.2597 12.0003 22.2598C10.731 22.2598 9.45161 21.8098 8.41925 20.9141L8.21613 20.7285C5.2961 17.9171 2.20918 13.5605 3.37726 8.44141V8.44043C4.42336 3.8323 8.44351 1.75 12.0003 1.75ZM12.0003 2.25C8.94143 2.25 4.93115 3.88808 3.87238 8.54785C2.72925 13.5332 5.86996 17.7676 8.57355 20.3604C10.4971 22.2165 13.5123 22.2156 15.4359 20.3594L15.4368 20.3604C18.1302 17.7679 21.2695 13.534 20.1478 8.5498V8.54785L20.0384 8.12012C18.828 3.78737 14.9634 2.25011 12.0003 2.25Z" fill="#353535" stroke="#AEAEAE"/>
</svg>
