<svg width="32" height="32" viewBox="0 0 32 32" fill="none" xmlns="http://www.w3.org/2000/svg">
<path d="M16 30.4127C15.08 30.4127 14.2134 29.946 13.6 29.1327L11.6 26.466C11.56 26.4127 11.4 26.346 11.3334 26.3327H10.6667C5.10669 26.3327 1.66669 24.826 1.66669 17.3327V10.666C1.66669 4.77268 4.77335 1.66602 10.6667 1.66602H21.3334C27.2267 1.66602 30.3334 4.77268 30.3334 10.666V17.3327C30.3334 23.226 27.2267 26.3327 21.3334 26.3327H20.6667C20.56 26.3327 20.4667 26.386 20.4 26.466L18.4 29.1327C17.7867 29.946 16.92 30.4127 16 30.4127ZM10.6667 3.66602C5.89335 3.66602 3.66669 5.89268 3.66669 10.666V17.3327C3.66669 23.3594 5.73335 24.3327 10.6667 24.3327H11.3334C12.0134 24.3327 12.7867 24.7194 13.2 25.266L15.2 27.9327C15.6667 28.546 16.3334 28.546 16.8 27.9327L18.8 25.266C19.24 24.6793 19.9334 24.3327 20.6667 24.3327H21.3334C26.1067 24.3327 28.3334 22.106 28.3334 17.3327V10.666C28.3334 5.89268 26.1067 3.66602 21.3334 3.66602H10.6667Z" fill="#194BF0"/>
<path d="M16 16.0007C15.2534 16.0007 14.6667 15.4007 14.6667 14.6673C14.6667 13.934 15.2667 13.334 16 13.334C16.7334 13.334 17.3334 13.934 17.3334 14.6673C17.3334 15.4007 16.7467 16.0007 16 16.0007Z" fill="#194BF0"/>
<path d="M21.3333 16.0007C20.5867 16.0007 20 15.4007 20 14.6673C20 13.934 20.6 13.334 21.3333 13.334C22.0667 13.334 22.6667 13.934 22.6667 14.6673C22.6667 15.4007 22.08 16.0007 21.3333 16.0007Z" fill="#194BF0"/>
<path d="M10.6666 16.0007C9.91998 16.0007 9.33331 15.4007 9.33331 14.6673C9.33331 13.934 9.93331 13.334 10.6666 13.334C11.4 13.334 12 13.934 12 14.6673C12 15.4007 11.4133 16.0007 10.6666 16.0007Z" fill="#194BF0"/>
</svg>
