<svg width="24" height="24" viewBox="0 0 24 24" fill="none" xmlns="http://www.w3.org/2000/svg">
<path d="M5.58984 1.75C5.90697 1.75 6.23427 1.82394 6.50684 1.95215L6.51074 1.9541C6.82341 2.09847 7.07894 2.31 7.26367 2.58691L7.26758 2.59375L7.27246 2.59961L9.5918 5.86914L9.59473 5.87305C9.78619 6.13745 9.92347 6.3812 10.0146 6.61328L10.0176 6.62109L10.0215 6.62891C10.1295 6.87827 10.1797 7.11089 10.1797 7.32031C10.1796 7.59991 10.1002 7.88215 9.93164 8.16309L9.92676 8.16992L9.92285 8.17676C9.80212 8.39408 9.60515 8.64772 9.33691 8.91602H9.33594L9.3291 8.92383L8.64844 9.63379L8.44043 9.85156L8.53613 10.1377C8.55799 10.2033 8.58116 10.2502 8.59277 10.2734L8.59863 10.2861L8.60547 10.2979C8.74474 10.5416 9.00506 10.9274 9.47949 11.4844L9.4834 11.4893C9.97594 12.0522 10.4436 12.5702 10.9131 13.0498L10.9199 13.0566C11.5125 13.6392 12.0145 14.111 12.4912 14.5049C12.8591 14.8145 13.157 15.0329 13.3936 15.1875L13.3037 15.5752L14.2568 15.8701L14.5264 15.1699L14.5488 15.1113L15.0312 14.6357L15.0332 14.6338C15.3184 14.3486 15.5779 14.154 15.8096 14.0342L15.8271 14.0254L15.8428 14.0156C16.1953 13.7977 16.6449 13.7264 17.1289 13.8682L17.3389 13.9424C17.5654 14.0385 17.8133 14.1706 18.083 14.3594L21.4004 16.7178L21.4102 16.7246C21.6699 16.9001 21.8578 17.1105 21.9805 17.3496L22.0293 17.4541C22.1563 17.779 22.2099 18.0637 22.21 18.3398C22.21 18.7431 22.1171 19.151 21.9365 19.5381C21.7477 19.9427 21.5166 20.2905 21.2217 20.6123L21.2188 20.6143C20.6927 21.1956 20.134 21.5983 19.4932 21.8564H19.4922C18.8623 22.1121 18.176 22.25 17.4502 22.25C16.4 22.25 15.2753 21.9985 14.0938 21.499C13.0787 21.0675 12.0506 20.4928 11.0361 19.7988L10.6025 19.4941C9.45309 18.649 8.34209 17.7052 7.29004 16.6729C6.37998 15.7538 5.54516 14.7897 4.79199 13.8008L4.47363 13.374C3.63264 12.2 2.96273 11.0336 2.49023 9.91504C1.99198 8.72637 1.75001 7.59261 1.75 6.54004C1.75 5.8209 1.87923 5.1423 2.12598 4.51172L2.125 4.51074C2.37646 3.87413 2.783 3.27614 3.34082 2.75488L3.3418 2.75586L3.35156 2.74609C4.04029 2.06633 4.7978 1.75004 5.58984 1.75ZM5.58984 2.25C4.87977 2.25005 4.25315 2.56388 3.69824 3.10449C3.18967 3.5799 2.8261 4.10968 2.59668 4.69238C2.36054 5.2771 2.25 5.89175 2.25 6.54004C2.25001 7.54798 2.48785 8.62431 2.94922 9.71484L2.9502 9.71582C3.41683 10.8149 4.0665 11.9478 4.88574 13.0742C5.70089 14.195 6.6273 15.2841 7.64453 16.3115L7.64844 16.3154C8.66578 17.3226 9.76426 18.2592 10.8945 19.084C12.0004 19.8929 13.1435 20.5523 14.2832 21.0293V21.0303C16.0589 21.7883 17.8081 22.0024 19.2998 21.3818L19.3008 21.3828C19.8852 21.1422 20.3955 20.7744 20.8525 20.2617C21.1149 19.9754 21.321 19.6658 21.4902 19.3057L21.4912 19.3066C21.642 18.9924 21.7197 18.6586 21.7197 18.3203C21.7197 18.0905 21.6757 17.861 21.5674 17.6172L21.5625 17.6064L21.5576 17.5967L21.501 17.4961C21.4323 17.3867 21.3202 17.2512 21.1191 17.1123H21.1201L17.7998 14.7529L17.7969 14.75L17.6309 14.6396C17.467 14.536 17.3082 14.4527 17.1504 14.3877H17.1494C17.1293 14.3794 17.1099 14.3704 17.085 14.3594C17.0623 14.3494 17.0311 14.3351 16.999 14.3223C16.9328 14.2959 16.8374 14.2634 16.7207 14.2539C16.4869 14.235 16.2803 14.3177 16.0859 14.4326C15.8162 14.5675 15.5923 14.7605 15.3789 14.9736L14.6211 15.7217C14.3831 15.9536 13.9953 16.0182 13.7012 15.9131L13.4727 15.8115C13.1995 15.6636 12.8819 15.4513 12.5273 15.1738L12.1533 14.8691C11.802 14.569 11.4275 14.2283 10.999 13.8184L10.5508 13.3838C10.07 12.893 9.58883 12.3725 9.08789 11.793C8.63736 11.2655 8.32743 10.8323 8.14062 10.4902L8.04785 10.2588C7.99871 10.0666 7.99025 9.98659 7.99023 9.91016C7.99023 9.67899 8.07021 9.48749 8.22363 9.33398L8.23047 9.32617L8.97949 8.5459C9.19525 8.32926 9.3701 8.11183 9.49512 7.90137L9.49609 7.90234C9.6148 7.70945 9.67969 7.50939 9.67969 7.2998C9.67964 7.12549 9.62292 6.93552 9.56152 6.78809L9.55762 6.7793C9.49012 6.62511 9.39901 6.46664 9.29297 6.30957L9.18262 6.15332L6.86816 2.88086L6.86719 2.87891L6.74805 2.73242C6.62214 2.5956 6.47401 2.48767 6.30176 2.40723L6.29004 2.40234L6.12598 2.33887C5.95692 2.28287 5.77618 2.25 5.58984 2.25Z" fill="#353535" stroke="#AEAEAE"/>
<path d="M15 5.25C15.7893 5.25 16.6858 5.677 17.5146 6.56152V6.56055C18.3032 7.40613 18.75 8.37983 18.75 9C18.75 9.13386 18.6339 9.25 18.5 9.25C18.3661 9.25 18.25 9.13386 18.25 9C18.25 8.69483 18.1127 8.32793 17.9375 7.99609C17.7519 7.64468 17.4851 7.2611 17.1543 6.9082H17.1553C16.5276 6.23796 15.7539 5.75 15 5.75C14.8661 5.75 14.75 5.63386 14.75 5.5C14.75 5.36614 14.8661 5.25 15 5.25Z" fill="#353535" stroke="#AEAEAE"/>
<path d="M15 1.75C18.9939 1.75 22.25 5.00614 22.25 9C22.25 9.13386 22.1339 9.25 22 9.25C21.8661 9.25 21.75 9.13386 21.75 9C21.75 5.27386 18.7261 2.25 15 2.25C14.8661 2.25 14.75 2.13386 14.75 2C14.75 1.86614 14.8661 1.75 15 1.75Z" fill="#353535" stroke="#AEAEAE"/>
</svg>
