<svg width="24" height="24" viewBox="0 0 24 24" fill="none" xmlns="http://www.w3.org/2000/svg">
<path d="M11.9897 1.76172C12.5865 1.76172 13.161 1.84959 13.5845 2.00781L18.5845 3.87793H18.5854C19.8383 4.34456 20.8402 5.79647 20.8403 7.12891V14.5596C20.8403 15.1733 20.6443 15.8936 20.3052 16.5684C19.9661 17.2431 19.5044 17.8305 19.0112 18.1982L14.7104 21.4082L14.7095 21.4092C13.9673 21.9657 12.9962 22.2588 11.9995 22.2588C11.0657 22.2587 10.1528 22.0013 9.42139 21.5088L9.27783 21.4072L4.979 18.1982L4.79541 18.0508C4.3718 17.6828 3.98089 17.1589 3.68408 16.5684C3.34498 15.8936 3.14998 15.1733 3.1499 14.5596V7.12891C3.15006 5.79645 4.15188 4.34453 5.40479 3.87793L5.40576 3.87695L10.395 2.00781C10.8185 1.84954 11.3929 1.76174 11.9897 1.76172ZM11.9985 2.25195C11.5071 2.25196 10.9847 2.31774 10.5747 2.4707L5.58447 4.34082C5.03559 4.54537 4.55794 4.97384 4.22119 5.45898C3.8843 5.94439 3.64998 6.54214 3.6499 7.12891V14.5596C3.64999 15.1373 3.84858 15.7854 4.13135 16.3496C4.41407 16.9137 4.81343 17.4582 5.271 17.7998L9.5708 21.0098C10.2497 21.5173 11.136 21.7539 11.9946 21.7539C12.7997 21.7539 13.6295 21.5459 14.2896 21.1016L14.4194 21.0098L18.7192 17.7998L18.7202 17.7988C19.1822 17.4522 19.5813 16.9052 19.8628 16.3408C20.1442 15.7766 20.3402 15.1315 20.3403 14.5596V7.12891C20.3402 6.5461 20.1042 5.95113 19.7681 5.4668C19.4315 4.98195 18.9551 4.55246 18.4087 4.34277L18.4058 4.34082L13.4155 2.4707H13.4146C13.0084 2.31739 12.4886 2.25195 11.9985 2.25195Z" fill="#353535" stroke="#AEAEAE"/>
<path d="M11.9297 7.16016C13.0335 7.16016 13.9393 8.06617 13.9395 9.16992C13.9298 10.2422 13.1131 11.1032 12.0654 11.1748C12.0618 11.1744 12.0581 11.1732 12.0547 11.1729C12.0355 11.171 12.0199 11.1701 12.0127 11.1699H11.9434C10.7565 11.137 9.91992 10.2414 9.91992 9.16992C9.92006 8.06624 10.826 7.16027 11.9297 7.16016ZM11.9297 7.66016C11.0937 7.66027 10.4201 8.33398 10.4199 9.16992C10.4199 9.98966 11.0634 10.6496 11.8711 10.6797H12.0283C12.8298 10.6343 13.4395 9.96822 13.4395 9.16992C13.4495 8.32304 12.7545 7.66016 11.9297 7.66016Z" fill="#353535" stroke="#AEAEAE"/>
<path d="M12.0029 12.9297C12.7869 12.9308 13.549 13.1363 14.123 13.5176L14.125 13.5186C14.6785 13.882 14.9502 14.3864 14.9502 14.8809C14.9502 15.3749 14.6791 15.8811 14.1211 16.2559C13.5471 16.6414 12.7783 16.8506 12 16.8506C11.319 16.8506 10.6449 16.6909 10.1025 16.3926L9.87891 16.2559L9.87402 16.2529C9.32067 15.8894 9.0498 15.3851 9.0498 14.8906C9.04992 14.3967 9.32099 13.8903 9.87891 13.5156L9.87793 13.5146C10.4558 13.13 11.2197 12.9286 12.0029 12.9297ZM12.0049 13.4287C11.4404 13.4287 10.8487 13.5444 10.3594 13.8027L10.1602 13.9199C9.86569 14.1084 9.54032 14.4403 9.55078 14.8809H9.5498C9.5498 14.8834 9.54978 14.8861 9.5498 14.8887C9.55002 14.8952 9.55042 14.9017 9.55078 14.9082L9.55176 14.9072C9.56406 15.3226 9.86398 15.6446 10.1523 15.8369C10.6754 16.1856 11.3549 16.3408 12 16.3408C12.645 16.3408 13.3246 16.1856 13.8477 15.8369L13.8467 15.8359C14.1521 15.6382 14.46 15.309 14.46 14.8809C14.4599 14.4528 14.1518 14.1211 13.8574 13.9248L13.8535 13.9229L13.6504 13.8027C13.161 13.5444 12.5694 13.4287 12.0049 13.4287Z" fill="#353535" stroke="#AEAEAE"/>
</svg>
