<svg width="52" height="52" viewBox="0 0 52 52" fill="none" xmlns="http://www.w3.org/2000/svg">
<rect x="0.5" y="0.5" width="51" height="51" rx="25.5" fill="#FDB713"/>
<rect x="0.5" y="0.5" width="51" height="51" rx="25.5" stroke="white"/>
<path d="M19.3337 13.5H32.6667C35.5892 13.5 37.3216 13.9521 38.3513 14.9814C39.3808 16.011 39.8337 17.7442 39.8337 20.667V31.333C39.8337 34.2558 39.3808 35.989 38.3513 37.0186C37.3216 38.0479 35.5892 38.5 32.6667 38.5H19.3337C16.4109 38.5 14.6777 38.0481 13.6481 37.0186C12.6186 35.989 12.1667 34.2558 12.1667 31.333V20.667C12.1667 17.7442 12.6186 16.011 13.6481 14.9814C14.6777 13.9519 16.4109 13.5 19.3337 13.5ZM19.3337 14.5C18.1315 14.5 17.1381 14.5561 16.3307 14.7266C15.5179 14.8982 14.8573 15.1931 14.3561 15.6953C13.8551 16.1974 13.5617 16.8589 13.3913 17.6709C13.2221 18.4773 13.1667 19.4686 13.1667 20.667V31.333C13.1667 32.5314 13.2221 33.5227 13.3913 34.3291C13.5617 35.1411 13.8551 35.8026 14.3561 36.3047C14.8573 36.8069 15.5179 37.1018 16.3307 37.2734C17.1381 37.4439 18.1315 37.5 19.3337 37.5H32.6667C33.8686 37.5 34.8614 37.4438 35.6686 37.2734C36.4815 37.1018 37.143 36.8069 37.6442 36.3047C38.1452 35.8026 38.4377 35.141 38.6081 34.3291C38.7773 33.5227 38.8337 32.5314 38.8337 31.333V20.667C38.8337 19.4686 38.7773 18.4773 38.6081 17.6709C38.4377 16.859 38.1452 16.1974 37.6442 15.6953C37.143 15.1931 36.4815 14.8982 35.6686 14.7266C34.8614 14.5562 33.8686 14.5 32.6667 14.5H19.3337Z" fill="#292D32" stroke="#0C0C0C"/>
<path d="M28.6667 20.166H35.3337C35.6041 20.1662 35.8337 20.3956 35.8337 20.666C35.8337 20.9364 35.6041 21.1658 35.3337 21.166H28.6667C28.3962 21.166 28.1667 20.9365 28.1667 20.666C28.1667 20.4295 28.3422 20.2246 28.5671 20.1768L28.6667 20.166Z" fill="#292D32" stroke="#0C0C0C"/>
<path d="M30 25.5H35.333C35.6035 25.5 35.833 25.7295 35.833 26C35.833 26.2705 35.6035 26.5 35.333 26.5H30C29.7295 26.5 29.5 26.2705 29.5 26C29.5 25.7295 29.7295 25.5 30 25.5Z" fill="#292D32" stroke="#0C0C0C"/>
<path d="M32.6667 30.834H35.3337C35.6041 30.8342 35.8337 31.0636 35.8337 31.334C35.8337 31.6044 35.6041 31.8338 35.3337 31.834H32.6667C32.3962 31.834 32.1667 31.6045 32.1667 31.334C32.1667 31.0635 32.3962 30.834 32.6667 30.834Z" fill="#292D32" stroke="#0C0C0C"/>
<path d="M21.3331 19.7266C22.9368 19.7266 24.247 21.0359 24.2471 22.6396C24.2471 24.2435 22.9369 25.5537 21.3331 25.5537C19.7293 25.5536 18.42 24.2434 18.42 22.6396C18.4201 21.036 19.7294 19.7267 21.3331 19.7266ZM21.3331 20.7266C20.2838 20.7267 19.4201 21.5904 19.42 22.6396C19.42 23.689 20.2837 24.5536 21.3331 24.5537C22.3825 24.5537 23.2471 23.6891 23.2471 22.6396C23.247 21.5903 22.3825 20.7266 21.3331 20.7266Z" fill="#292D32" stroke="#0C0C0C"/>
<path d="M20.2589 27.6436C20.9615 27.5797 21.6774 27.5788 22.38 27.6426V27.6436C24.4754 27.8416 26.1651 29.4618 26.465 31.5156L26.4894 31.7158C26.5153 31.9909 26.3123 32.2355 26.045 32.2617L25.965 32.2686C25.7272 32.2514 25.5229 32.0649 25.4972 31.8145C25.3262 30.1382 23.9779 28.7901 22.2853 28.6348L22.2833 28.6338L21.8019 28.6025C21.3202 28.5816 20.8382 28.5919 20.3566 28.6338L20.3546 28.6348C18.6635 28.7899 17.3135 30.1235 17.1427 31.8154V31.8174C17.1188 32.0618 16.9223 32.2431 16.7023 32.2637L16.6075 32.2627L16.5948 32.2617L16.4982 32.2412C16.2807 32.1731 16.1278 31.9565 16.1505 31.7158C16.3668 29.5526 18.0853 27.8357 20.257 27.6436H20.2589Z" fill="#292D32" stroke="#0C0C0C"/>
</svg>
