<svg width="24" height="24" viewBox="0 0 24 24" fill="none" xmlns="http://www.w3.org/2000/svg">
<path d="M12.0005 16.7207C15.3218 16.7208 17.9887 18.7973 18.3628 21.3545L18.3921 21.6035C18.4017 21.7251 18.3323 21.8261 18.2124 21.8604L18.2056 21.8623C17.3375 22.1236 16.2899 22.251 15.0005 22.251H9.00049C7.71077 22.251 6.66262 22.1237 5.79443 21.8623L5.7915 21.8613L5.71729 21.8232C5.65167 21.7744 5.60667 21.6919 5.60889 21.5986C5.83344 18.9419 8.57238 16.7207 12.0005 16.7207ZM12.0005 17.2207C9.2892 17.2207 6.84519 18.7274 6.23779 20.9277L6.09521 21.4473L6.62354 21.5518C7.32439 21.6898 8.10885 21.751 9.00049 21.751H15.0005C15.8919 21.751 16.6758 21.6897 17.3765 21.5518L17.9058 21.4473L17.7622 20.9277C17.1548 18.7274 14.7116 17.2208 12.0005 17.2207Z" fill="#353535" stroke="#AEAEAE"/>
<path d="M15 2H9C4 2 2 4 2 9V15C2 18.78 3.14 20.85 5.86 21.62C6.08 19.02 8.75 16.97 12 16.97C15.25 16.97 17.92 19.02 18.14 21.62C20.86 20.85 22 18.78 22 15V9C22 4 20 2 15 2ZM12 14.17C10.02 14.17 8.42 12.56 8.42 10.58C8.42 8.60002 10.02 7 12 7C13.98 7 15.58 8.60002 15.58 10.58C15.58 12.56 13.98 14.17 12 14.17Z" stroke="#AEAEAE" stroke-width="1.5" stroke-linecap="round" stroke-linejoin="round"/>
<path d="M12 6.75C14.1138 6.75004 15.8301 8.46624 15.8301 10.5801C15.83 12.6954 14.1123 14.4199 12 14.4199C9.88766 14.4199 8.16995 12.6954 8.16992 10.5801C8.16992 8.46622 9.88614 6.75 12 6.75ZM12 7.25C10.1639 7.25 8.66992 8.74394 8.66992 10.5801C8.66995 12.4251 10.1627 13.9199 12 13.9199C13.8372 13.9199 15.33 12.425 15.3301 10.5801C15.3301 8.74396 13.8361 7.25004 12 7.25Z" fill="#353535" stroke="#AEAEAE"/>
</svg>
