<svg width="52" height="52" viewBox="0 0 52 52" fill="none" xmlns="http://www.w3.org/2000/svg">
<rect x="0.5" y="0.5" width="51" height="51" rx="25.5" fill="#F3F3F3"/>
<rect x="0.5" y="0.5" width="51" height="51" rx="25.5" stroke="#AEAEAE"/>
<path d="M12.6667 20.834H39.3337C39.604 20.8342 39.8337 21.0636 39.8337 21.334C39.8337 21.6044 39.604 21.8338 39.3337 21.834H12.6667C12.3961 21.834 12.1667 21.6045 12.1667 21.334C12.1667 21.0635 12.3961 20.834 12.6667 20.834Z" fill="#292D32" stroke="#868686"/>
<path d="M18 31.5H20.667C20.9374 31.5002 21.167 31.7296 21.167 32C21.167 32.2704 20.9374 32.4998 20.667 32.5H18C17.7295 32.5 17.5 32.2705 17.5 32C17.5 31.7295 17.7295 31.5 18 31.5Z" fill="#292D32" stroke="#868686"/>
<path d="M24 31.5H29.333C29.6035 31.5 29.833 31.7295 29.833 32C29.833 32.2705 29.6035 32.5 29.333 32.5H24C23.7295 32.5 23.5 32.2705 23.5 32C23.5 31.7295 23.7295 31.5 24 31.5Z" fill="#292D32" stroke="#868686"/>
<path d="M18.5866 14.166H33.4001C36.0364 14.166 37.583 14.5717 38.4977 15.4775C39.4109 16.3822 39.82 17.911 39.82 20.5195V31.4668C39.8266 34.0821 39.4208 35.6138 38.5094 36.5195C37.5967 37.4266 36.0504 37.833 33.4137 37.833H18.5866C15.95 37.833 14.4036 37.4265 13.4889 36.5205C12.5758 35.6159 12.1667 34.0879 12.1667 31.4795V20.5195C12.1667 17.911 12.5758 16.3822 13.4889 15.4775C14.4036 14.5717 15.9503 14.166 18.5866 14.166ZM18.5866 15.166C17.5329 15.166 16.6609 15.2103 15.9528 15.3525C15.2399 15.4958 14.6525 15.7461 14.2057 16.1865C13.7582 16.6277 13.5032 17.2095 13.3571 17.916C13.2122 18.6167 13.1667 19.4788 13.1667 20.5195V31.4658C13.1667 32.5065 13.2122 33.3686 13.3571 34.0693C13.5032 34.7759 13.7582 35.3576 14.2057 35.7988C14.6525 36.2392 15.2399 36.4896 15.9528 36.6328C16.6609 36.7751 17.5329 36.8193 18.5866 36.8193H33.4001C34.4538 36.8193 35.3258 36.7751 36.0339 36.6328C36.7468 36.4896 37.3342 36.2392 37.7809 35.7988C38.2284 35.3576 38.4834 34.7759 38.6296 34.0693C38.7745 33.3686 38.82 32.5065 38.82 31.4658V20.5195C38.82 19.4788 38.7745 18.6167 38.6296 17.916C38.4834 17.2095 38.2284 16.6277 37.7809 16.1865C37.3342 15.7461 36.7468 15.4958 36.0339 15.3525C35.3258 15.2103 34.4538 15.166 33.4001 15.166H18.5866Z" fill="#292D32" stroke="#868686"/>
</svg>
