<svg width="52" height="52" viewBox="0 0 52 52" fill="none" xmlns="http://www.w3.org/2000/svg">
<rect x="0.5" y="0.5" width="51" height="51" rx="25.5" fill="#F3F3F3"/>
<rect x="0.5" y="0.5" width="51" height="51" rx="25.5" stroke="#AEAEAE"/>
<path d="M21.9997 12.166H28.6667C28.9372 12.166 29.1667 12.3955 29.1667 12.666C29.1667 12.9365 28.9372 13.166 28.6667 13.166H21.9997C18.8912 13.1661 16.6348 13.7135 15.1745 15.1738C13.7141 16.6342 13.1667 18.8906 13.1667 21.999V29.999C13.1667 33.1074 13.7143 35.3638 15.1745 36.8242C16.6348 38.2845 18.8912 38.833 21.9997 38.833H29.9997C33.1083 38.833 35.3645 38.2846 36.8249 36.8242C38.2852 35.3638 38.8336 33.1076 38.8336 29.999V23.333C38.8336 23.0625 39.0631 22.833 39.3336 22.833C39.604 22.8332 39.8336 23.0626 39.8336 23.333V29.999C39.8336 33.5616 39.0702 35.9851 37.528 37.5273C35.9858 39.0695 33.5623 39.833 29.9997 39.833H21.9997C18.4374 39.833 16.0145 39.0694 14.4723 37.5273C12.9301 35.9851 12.1667 33.5616 12.1667 29.999V21.999C12.1667 18.4366 12.9302 16.0138 14.4723 14.4717C16.0145 12.9295 18.4372 12.1661 21.9997 12.166Z" fill="#292D32" stroke="#868686"/>
<path d="M28.4772 12.2061C28.6516 12.1313 28.8675 12.1674 29.028 12.3203L39.6862 22.9795C39.8257 23.119 39.8708 23.3423 39.7936 23.5225C39.7108 23.7155 39.5295 23.8329 39.3336 23.833H33.9997C31.7659 23.833 30.3494 23.3946 29.4772 22.5225C28.605 21.6502 28.1667 20.2331 28.1667 17.999V12.666C28.1667 12.4594 28.2917 12.2781 28.4626 12.2109L28.4704 12.209L28.4772 12.2061ZM29.1667 17.999C29.1667 19.7194 29.379 20.9985 30.1901 21.8096C31.0012 22.6205 32.2796 22.833 33.9997 22.833H38.1266L37.2731 21.9795L30.0202 14.7256L29.1667 13.8721V17.999Z" fill="#292D32" stroke="#868686"/>
<path d="M19.3333 26.834H27.3333C27.6039 26.834 27.8333 27.0635 27.8333 27.334C27.8333 27.6045 27.6039 27.834 27.3333 27.834H19.3333C19.0628 27.834 18.8333 27.6045 18.8333 27.334C18.8333 27.0635 19.0628 26.834 19.3333 26.834Z" fill="#292D32" stroke="#868686"/>
<path d="M19.3333 32.166H24.6664C24.9369 32.166 25.1664 32.3955 25.1664 32.666C25.1664 32.9365 24.9369 33.166 24.6664 33.166H19.3333C19.0628 33.166 18.8333 32.9365 18.8333 32.666C18.8333 32.3955 19.0628 32.166 19.3333 32.166Z" fill="#292D32" stroke="#868686"/>
</svg>
