<svg width="52" height="52" viewBox="0 0 52 52" fill="none" xmlns="http://www.w3.org/2000/svg">
<rect x="0.5" y="0.5" width="51" height="51" rx="25.5" fill="#F3F3F3"/>
<rect x="0.5" y="0.5" width="51" height="51" rx="25.5" stroke="#AEAEAE"/>
<path d="M21.3196 13.2734H30.6927C32.5775 13.2734 33.6727 13.7843 34.3607 14.4922C35.065 15.2169 35.4149 16.2191 35.6566 17.3545V17.3555L37.1634 24.5693L37.1653 24.5771C37.1945 24.7054 37.163 24.8544 37.0667 24.9854C36.9583 25.1026 36.8182 25.1669 36.6663 25.167H15.3323C15.1753 25.1669 15.0433 25.1006 14.9544 24.9863L14.9456 24.9756L14.888 24.8848C14.8401 24.7864 14.8233 24.6691 14.847 24.5645L14.8489 24.5557L16.3558 17.3564C16.5975 16.2136 16.9464 15.2106 17.6507 14.4873C18.3383 13.7813 19.434 13.2734 21.3196 13.2734ZM21.3196 14.2734C19.9181 14.2734 18.9768 14.5729 18.3499 15.2168C17.7454 15.8377 17.5216 16.6996 17.3372 17.5625V17.5635L16.0706 23.5635L15.9427 24.167H36.0413L35.9153 23.5645L34.6624 17.5645L34.6614 17.5625L34.5901 17.2393C34.4156 16.4878 34.1784 15.7601 33.6497 15.2168C33.0228 14.5729 32.0806 14.2734 30.679 14.2734H21.3196Z" fill="#292D32" stroke="#868686"/>
<path d="M17.4932 24.166H34.5059C36.5548 24.166 37.5996 24.7241 38.1777 25.4307C38.7042 26.0742 38.9146 26.9202 39.0303 27.8555L39.0752 28.2607L39.8213 36.3789C39.8967 37.1991 39.6487 38.0184 39.125 38.6572L39.0166 38.7822C38.4065 39.4497 37.5285 39.8329 36.6133 39.833H34.1064C33.1303 39.833 32.6256 39.5569 32.332 39.2598C32.0185 38.9424 31.8771 38.5386 31.7412 38.124L31.4736 37.3213L31.4727 37.3174L31.3506 36.9678C31.3106 36.858 31.2706 36.7556 31.2285 36.6641C31.1413 36.4742 31.0246 36.282 30.835 36.1328C30.6433 35.9821 30.4241 35.9121 30.1973 35.876C29.977 35.8409 29.7147 35.833 29.4131 35.833H22.5859C21.9983 35.833 21.5022 35.8761 21.1396 36.1748C20.9556 36.3264 20.8404 36.5153 20.7539 36.7031C20.6706 36.884 20.5992 37.0997 20.5254 37.3213L20.2588 38.1191C20.1143 38.5456 19.9744 38.9485 19.6621 39.2646C19.371 39.5594 18.8702 39.833 17.8926 39.833H15.3857C14.4704 39.8329 13.5916 39.4499 12.9814 38.7822H12.9824C12.385 38.1273 12.0973 37.2537 12.1777 36.3789L12.9238 28.2588V28.2578C13.0232 27.1651 13.2138 26.1664 13.8164 25.4316C14.3962 24.7247 15.4441 24.166 17.4932 24.166ZM17.4932 25.1797C16.1221 25.1797 15.1988 25.4097 14.6367 26.0381C14.0972 26.6415 14.0044 27.5054 13.9277 28.3682L13.1816 36.4873V36.4902C13.1299 37.0941 13.3215 37.6733 13.7383 38.125V38.124C14.1612 38.596 14.7788 38.8457 15.3994 38.8457H17.9062C18.0776 38.8457 18.2429 38.8454 18.3809 38.8301C18.5247 38.8141 18.7001 38.7766 18.8604 38.6592C19.0197 38.5423 19.1078 38.3879 19.166 38.2598C19.2217 38.137 19.2732 37.9829 19.3262 37.8271L19.3281 37.8223L19.5947 37.0088L19.5967 37.002C19.7652 36.4627 19.9435 35.9456 20.3418 35.5459C20.7206 35.1658 21.3636 34.833 22.5859 34.833H29.4131C30.5538 34.8331 31.1677 35.0863 31.5518 35.4248C31.9509 35.7766 32.1808 36.2851 32.4189 36.9863L32.6992 37.8135C32.752 37.972 32.8033 38.1272 32.8584 38.251C32.916 38.3803 33.0031 38.5365 33.1621 38.6553C33.3228 38.7752 33.4986 38.8137 33.6436 38.8301C33.7821 38.8458 33.9479 38.8457 34.1191 38.8457H36.626C37.2553 38.8457 37.8561 38.5903 38.2861 38.126L38.2871 38.125C38.7039 37.6733 38.8964 37.0942 38.8447 36.4902L38.8438 36.4873L38.0977 28.3672L38.0967 28.3652L38.0254 27.7217C37.9379 27.0872 37.7825 26.4894 37.3789 26.0381C36.8172 25.4102 35.8985 25.1797 34.5332 25.1797H17.4932Z" fill="#292D32" stroke="#868686"/>
<path d="M13.9995 20.166H15.3325C15.603 20.166 15.8325 20.3955 15.8325 20.666C15.8325 20.9365 15.603 21.166 15.3325 21.166H13.9995C13.7289 21.166 13.4995 20.9365 13.4995 20.666C13.4995 20.3955 13.7289 20.166 13.9995 20.166Z" fill="#292D32" stroke="#868686"/>
<path d="M36.6661 20.166H37.9991C38.2697 20.166 38.4991 20.3955 38.4991 20.666C38.4991 20.9365 38.2697 21.166 37.9991 21.166H36.6661C36.3956 21.166 36.1661 20.9365 36.1661 20.666C36.1661 20.3955 36.3956 20.166 36.6661 20.166Z" fill="#292D32" stroke="#868686"/>
<path d="M25.9995 13.5C26.27 13.5 26.4995 13.7295 26.4995 14V16.667C26.4993 16.9374 26.2699 17.167 25.9995 17.167C25.729 17.167 25.4996 16.9374 25.4995 16.667V14C25.4995 13.7295 25.7289 13.5 25.9995 13.5Z" fill="#292D32" stroke="#868686"/>
<path d="M23.9995 16.166H27.9995C28.27 16.166 28.4995 16.3955 28.4995 16.666C28.4995 16.9365 28.27 17.166 27.9995 17.166H23.9995C23.7289 17.166 23.4995 16.9365 23.4995 16.666C23.4995 16.3955 23.7289 16.166 23.9995 16.166Z" fill="#292D32" stroke="#868686"/>
<path d="M17.9995 29.5H21.9995C22.27 29.5 22.4995 29.7295 22.4995 30C22.4995 30.2705 22.27 30.5 21.9995 30.5H17.9995C17.7289 30.5 17.4995 30.2705 17.4995 30C17.4995 29.7295 17.7289 29.5 17.9995 29.5Z" fill="#292D32" stroke="#868686"/>
<path d="M33.9995 31H29.9995C29.4528 31 28.9995 30.5467 28.9995 30C28.9995 29.4533 29.4528 29 29.9995 29H33.9995C34.5461 29 34.9995 29.4533 34.9995 30C34.9995 30.5467 34.5461 31 33.9995 31Z" fill="#292D32"/>
</svg>
