<svg width="32" height="32" viewBox="0 0 32 32" fill="none" xmlns="http://www.w3.org/2000/svg">
<rect x="0.25" y="0.25" width="31.5" height="31.5" rx="1.75" stroke="#C2C2C2" stroke-width="0.5"/>
<g clip-path="url(#clip0_2671_73580)">
<path d="M15.9997 7.65625C11.5971 7.65625 8.02832 11.2861 8.02832 15.7639C8.02832 20.2418 11.5971 23.8716 15.9997 23.8716C20.4024 23.8716 23.9712 20.2418 23.9712 15.7639C23.9712 11.2861 20.4024 7.65625 15.9997 7.65625ZM19.1883 16.5747L22.3275 16.5755C22.1499 18.0043 21.51 19.3323 20.5088 20.3506C19.5075 21.3688 18.2016 22.0194 16.7969 22.1998V19.007C17.4311 19.007 18.0394 18.7508 18.4879 18.2946C18.9364 17.8385 19.1883 17.2198 19.1883 16.5747ZM9.67203 16.5755L12.8112 16.5747C12.8112 17.2198 13.0631 17.8385 13.5116 18.2946C13.9601 18.7508 14.5684 19.007 15.2026 19.007L15.2018 22.1998C13.7972 22.0193 12.4915 21.3685 11.4904 20.3504C10.4893 19.3321 9.84958 18.0042 9.67203 16.5755ZM15.9997 9.27779C17.5531 9.27782 19.053 9.85439 20.218 10.8993C21.3831 11.9443 22.1332 13.3857 22.3275 14.9532H19.1883C19.1883 14.7381 19.1043 14.5319 18.9548 14.3799C18.8053 14.2278 18.6026 14.1424 18.3912 14.1424H13.6083C13.3969 14.1424 13.1942 14.2278 13.0446 14.3799C12.8952 14.5319 12.8112 14.7381 12.8112 14.9532H9.67203C9.86636 13.3857 10.6164 11.9443 11.7815 10.8993C12.9465 9.85439 14.4464 9.27782 15.9997 9.27779Z" fill="#727272"/>
</g>
<defs>
<clipPath id="clip0_2671_73580">
<rect width="18" height="17" fill="white" transform="translate(7 7.5)"/>
</clipPath>
</defs>
</svg>
