<svg width="32" height="32" viewBox="0 0 32 32" fill="none" xmlns="http://www.w3.org/2000/svg">
<rect x="0.25" y="0.25" width="31.5" height="31.5" rx="1.75" stroke="#C2C2C2" stroke-width="0.5"/>
<g clip-path="url(#clip0_2671_73560)">
<path d="M12.5265 6C13.2253 5.99978 13.9007 6.25239 14.4278 6.71119C14.955 7.17 15.2983 7.80403 15.3946 8.49623C15.4908 9.18844 15.3333 9.89207 14.9513 10.4772C14.5692 11.0624 13.9884 11.4896 13.3159 11.68V15.7369C13.3159 15.9462 13.2328 16.1471 13.0847 16.2951C12.9366 16.4432 12.7358 16.5264 12.5265 16.5264C12.3171 16.5264 12.1163 16.4432 11.9682 16.2951C11.8202 16.1471 11.737 15.9462 11.737 15.7369V11.68C11.066 11.4882 10.487 11.0605 10.1062 10.4757C9.7255 9.89091 9.56875 9.18831 9.66483 8.49712C9.76089 7.80596 10.1033 7.17272 10.6291 6.71392C11.1549 6.25511 11.8286 6.00159 12.5265 6ZM13.8423 8.89475C13.8423 8.54578 13.7036 8.21111 13.4569 7.96434C13.2101 7.71758 12.8754 7.57895 12.5265 7.57895C12.1775 7.57895 11.8428 7.71758 11.596 7.96434C11.3493 8.21111 11.2107 8.54578 11.2107 8.89475C11.2107 9.24372 11.3493 9.5784 11.596 9.82516C11.8428 10.0719 12.1775 10.2105 12.5265 10.2105C12.8754 10.2105 13.2101 10.0719 13.4569 9.82516C13.7036 9.5784 13.8423 9.24372 13.8423 8.89475ZM22.0002 10.7369C22.0002 10.0389 21.7229 9.36956 21.2294 8.87604C20.7359 8.38253 20.0665 8.10527 19.3685 8.10527C18.6706 8.10527 18.0013 8.38253 17.5078 8.87604C17.0142 9.36956 16.737 10.0389 16.737 10.7369V14.4211H14.3686V16H18.3159V10.7369C18.3159 10.4577 18.4269 10.1899 18.6242 9.99253C18.8217 9.79512 19.0894 9.68422 19.3685 9.68422C19.6478 9.68422 19.9154 9.79512 20.113 9.99253C20.3103 10.1899 20.4213 10.4577 20.4213 10.7369V23.3685C20.4213 23.6476 20.3103 23.9154 20.113 24.1128C19.9154 24.3101 19.6478 24.4211 19.3685 24.4211C19.0894 24.4211 18.8217 24.3101 18.6242 24.1128C18.4269 23.9154 18.3159 23.6476 18.3159 23.3685V18.1053H13.5791V23.3685C13.5791 23.6476 13.4682 23.9154 13.2708 24.1128C13.0734 24.3101 12.8056 24.4211 12.5265 24.4211C12.2473 24.4211 11.9795 24.3101 11.7821 24.1128C11.5847 23.9154 11.4738 23.6476 11.4738 23.3685V18.1053H5.158C5.01841 18.1053 4.88455 18.0499 4.78583 17.9512C4.68714 17.8524 4.63169 17.7186 4.63169 17.579V10.7369C4.63169 10.4577 4.74258 10.1899 4.94 9.99253C5.13741 9.79512 5.40514 9.68422 5.68432 9.68422C5.9635 9.68422 6.23125 9.79512 6.42864 9.99253C6.62605 10.1899 6.73695 10.4577 6.73695 10.7369V16H10.6843V14.4211H8.3159V10.7369C8.3159 10.0389 8.03866 9.36956 7.54513 8.87604C7.05161 8.38253 6.38226 8.10527 5.68432 8.10527C4.98638 8.10527 4.31703 8.38253 3.82351 8.87604C3.32999 9.36956 3.05273 10.0389 3.05273 10.7369V17.579C3.05273 18.1373 3.27454 18.6728 3.66935 19.0676C4.06417 19.4625 4.59965 19.6842 5.158 19.6842H9.89487V23.3685C9.89487 24.0664 10.1721 24.7357 10.6656 25.2293C11.1592 25.7228 11.8285 26 12.5265 26C13.2244 26 13.8937 25.7228 14.3873 25.2293C14.8808 24.7357 15.158 24.0664 15.158 23.3685V19.6842H16.737V23.3685C16.737 24.0664 17.0142 24.7357 17.5078 25.2293C18.0013 25.7228 18.6706 26 19.3685 26C20.0665 26 20.7359 25.7228 21.2294 25.2293C21.7229 24.7357 22.0002 24.0664 22.0002 23.3685V10.7369Z" fill="#727272"/>
</g>
<defs>
<clipPath id="clip0_2671_73560">
<rect width="18.9475" height="20" fill="white" transform="translate(3.05273 6)"/>
</clipPath>
</defs>
</svg>
