<svg width="32" height="32" viewBox="0 0 32 32" fill="none" xmlns="http://www.w3.org/2000/svg">
<rect x="0.25" y="0.25" width="31.5" height="31.5" rx="1.75" stroke="#C2C2C2" stroke-width="0.5"/>
<path d="M9.80518 6.02311C9.40861 6.09149 9.08042 6.30117 8.59724 6.7889C8.20524 7.19003 8.15965 7.25383 8.15965 7.40426C8.15965 7.62306 8.28728 7.75068 8.50608 7.75068C8.65649 7.75068 8.72031 7.7051 9.11232 7.32222C9.5727 6.8755 9.67299 6.80257 9.93736 6.74332C10.2154 6.6795 10.4707 6.77522 10.9538 7.12165L11.4051 7.44529L8.58812 10.2623C7.03833 11.8121 5.75746 13.0656 5.73922 13.0474C5.62071 12.9152 5.19223 12.3044 5.13298 12.1859C5.0327 11.9899 5.04182 11.6024 5.14665 11.3745C5.20136 11.256 5.70275 10.7227 6.55971 9.87027C7.79955 8.63499 7.88616 8.53927 7.88616 8.38884C7.88616 8.13814 7.78131 8.02418 7.5534 8.02418C7.36196 8.02418 7.35284 8.02874 5.98537 9.40077C4.33985 11.0554 4.35352 11.0372 4.35352 11.7847C4.35352 12.2542 4.36264 12.3044 4.49027 12.546C4.56776 12.6873 5.00535 13.3163 5.47029 13.9453C6.35914 15.1487 6.43663 15.2262 6.6919 15.1305C6.76027 15.1031 6.93348 14.9664 7.07934 14.8251L7.33917 14.5653L7.50782 14.7339L7.67648 14.9026L7.43945 15.1487C6.55059 16.0923 6.18594 17.4779 6.50045 18.736C6.60985 19.1782 6.97451 19.8983 7.27079 20.2539C7.74941 20.8237 8.51063 21.316 9.17614 21.4892C9.32656 21.5257 9.44963 21.5621 9.45419 21.5712C9.45874 21.5803 9.50888 21.7262 9.56359 21.904C9.61828 22.0772 9.74136 22.3553 9.83253 22.5148C10.0696 22.9114 10.612 23.4128 11.0222 23.6133L11.3504 23.773V24.4794C11.3504 25.1312 11.3595 25.2042 11.4598 25.423C11.706 25.9471 12.3578 26.1523 12.882 25.8788C13.0233 25.8058 13.356 25.4549 13.356 25.382C13.356 25.3637 13.4518 25.3455 13.5748 25.3455C13.78 25.3455 13.7982 25.3546 13.9486 25.5597C14.172 25.8606 14.4272 25.9928 14.7873 25.9928C15.1885 25.9973 15.5395 25.7967 15.7081 25.4686C15.7674 25.3591 15.7992 25.3455 15.9998 25.3455C16.2004 25.3455 16.2323 25.3591 16.2915 25.4686C16.4602 25.7967 16.8112 25.9928 17.2124 25.9928C17.5725 25.9973 17.8277 25.8606 18.051 25.5597C18.2014 25.3591 18.2196 25.3455 18.4248 25.3455C18.6026 25.3455 18.6481 25.3637 18.6937 25.4504C19.0766 26.1934 20.1888 26.175 20.5398 25.423C20.6493 25.186 20.6493 25.1723 20.6493 23.7501V22.3096L20.9637 22.2322C21.2782 22.1501 21.7113 21.9222 21.9255 21.7262C22.003 21.6533 22.1215 21.6123 22.2902 21.5895C22.705 21.5439 23.0651 21.4345 23.5027 21.2157C23.9905 20.9787 24.0862 20.8875 24.0862 20.6687C24.0862 20.3452 23.7944 20.2175 23.4754 20.3998C23.2064 20.5547 22.901 20.696 22.7506 20.7417L22.6275 20.7735L22.7232 20.4181C22.8143 20.0625 22.8143 20.0625 23.0879 19.8847C24.0588 19.2557 24.4781 18.0843 24.1135 16.9994C24.0041 16.6757 23.6759 16.1561 23.4754 15.9874L23.3477 15.878L23.5756 15.6547L23.8035 15.4313L24.077 15.7276C24.4235 16.1014 24.7152 16.694 24.8246 17.2318C24.9568 17.9019 24.8382 18.6403 24.4964 19.2739C24.314 19.6112 24.2958 19.83 24.4417 19.9667C24.6833 20.1901 24.9477 20.0397 25.1983 19.5337C25.9231 18.0614 25.6724 16.3293 24.5601 15.1487L24.3231 14.9026L24.4918 14.7339L24.6605 14.5653L24.9203 14.8251C25.0661 14.9664 25.2394 15.1031 25.3078 15.1305C25.563 15.2262 25.6405 15.1487 26.5293 13.9453C26.9943 13.3163 27.4365 12.6827 27.5094 12.5414C27.6371 12.3044 27.6462 12.2542 27.6462 11.7847C27.6462 11.3243 27.6371 11.2651 27.5185 11.0326C27.327 10.668 23.0742 6.40145 22.7004 6.20544C22.2401 5.9593 21.6521 5.93651 21.1871 6.14619C20.8999 6.27382 18.6345 7.96036 18.5615 8.09711C18.4658 8.27488 18.5297 8.41619 18.8396 8.73982L19.1177 9.03155L17.9599 10.1893L16.7975 11.3517H15.9998H15.2021L14.0398 10.1893L12.882 9.03155L13.16 8.73982C13.47 8.41619 13.5338 8.27488 13.4381 8.09711C13.3515 7.93301 11.0177 6.22368 10.735 6.11428C10.4388 6.00488 10.1106 5.97297 9.80518 6.02311ZM22.3358 6.8436C22.5773 6.96667 26.7846 11.2013 26.8712 11.4064C26.9623 11.6297 26.9578 12.0035 26.8667 12.1859C26.8074 12.3044 26.3789 12.9152 26.2605 13.0474C26.2421 13.0656 24.9613 11.8121 23.4116 10.2623L20.5945 7.44529L21.0458 7.1171C21.6429 6.69317 21.9255 6.63392 22.3358 6.8436ZM12.4672 8.23386C12.5538 8.29767 12.4079 8.4481 9.59094 11.2651L6.62353 14.2325L6.41384 13.9681L6.20416 13.6992L9.10321 10.7956L12.0068 7.89199L12.1891 8.02874C12.294 8.10168 12.417 8.19284 12.4672 8.23386ZM25.5857 13.9636L25.3762 14.2325L22.4224 11.2788C20.7951 9.65147 19.4641 8.31135 19.4641 8.29767C19.4687 8.28401 19.5826 8.18827 19.7284 8.08344L19.9883 7.89199L22.8919 10.791L25.7954 13.6901L25.5857 13.9636ZM13.4381 10.6361L14.4956 11.6936L12.2484 13.9408L10.0057 16.1834L8.93456 15.1122L7.86337 14.0411L8.10039 13.804L8.34198 13.567L8.85706 14.073C9.4314 14.6427 9.64107 14.7658 10.0194 14.7704C10.6029 14.7704 11.0313 14.351 11.0313 13.7676C11.0313 13.3801 10.9083 13.175 10.3385 12.5961L9.82796 12.081L10.1197 11.7847L10.416 11.4884L10.963 12.0354C11.551 12.6189 11.7105 12.7192 12.0797 12.7192C12.4763 12.7192 12.841 12.4958 12.9959 12.1494C13.1008 11.926 13.1099 11.5021 13.0142 11.2742C12.9731 11.183 12.7088 10.8685 12.4125 10.5677L11.8792 10.0298L12.1025 9.8019C12.2256 9.67426 12.3396 9.57398 12.3532 9.57398C12.3669 9.57398 12.8546 10.0526 13.4381 10.6361ZM19.8971 9.8019L20.1205 10.0298L19.5871 10.5677C19.2909 10.8685 19.0265 11.183 18.9855 11.2742C18.8898 11.5021 18.8989 11.926 19.0037 12.1494C19.1586 12.4958 19.5233 12.7192 19.9199 12.7192C20.2891 12.7192 20.4487 12.6189 21.0367 12.0354L21.5837 11.4884L21.88 11.7847L22.1717 12.081L21.6657 12.5915C21.0823 13.1887 20.9683 13.3756 20.9683 13.7539C20.9728 14.351 21.3877 14.7704 21.9802 14.7704C22.354 14.7658 22.5591 14.6427 23.138 14.0775L23.6622 13.567L23.8992 13.804L24.1363 14.0411L23.0651 15.1122L21.9939 16.1834L19.7512 13.9408L17.5041 11.6936L18.5615 10.6361C19.145 10.0526 19.6328 9.57398 19.6464 9.57398C19.6601 9.57398 19.7741 9.67426 19.8971 9.8019ZM11.8655 11.0736C12.2757 11.4839 12.3532 11.5887 12.3532 11.7072C12.3532 11.8622 12.221 11.9899 12.0569 11.9899C12.0022 11.9899 11.7652 11.7893 11.4553 11.4793L10.9402 10.9688L11.1316 10.7728C11.2365 10.6634 11.3367 10.5768 11.3504 10.5768C11.3641 10.5768 11.5966 10.8002 11.8655 11.0736ZM20.868 10.7728L21.0594 10.9688L20.5443 11.4793C20.2344 11.7893 19.9974 11.9899 19.9427 11.9899C19.7786 11.9899 19.6464 11.8622 19.6464 11.7072C19.6464 11.5887 19.7239 11.4839 20.1342 11.0736C20.403 10.8002 20.6356 10.5768 20.6493 10.5768C20.6629 10.5768 20.7631 10.6634 20.868 10.7728ZM19.1997 14.4376L21.5608 16.7988L21.447 17.1407C21.3877 17.3276 21.3147 17.4779 21.292 17.4688C21.2646 17.4643 20.3028 16.7806 19.1541 15.951C18.0101 15.1168 16.9388 14.3738 16.7748 14.2963C16.5012 14.1641 16.442 14.155 15.9953 14.155C15.5304 14.155 15.5029 14.1596 15.1657 14.3282C14.8375 14.4923 14.6825 14.6291 12.8957 16.3794C11.8382 17.4141 10.963 18.262 10.9447 18.2711C10.9265 18.2756 10.8034 17.9475 10.6758 17.5418L10.4388 16.7988L12.7999 14.4376L15.1566 12.081H15.9998H16.8431L19.1997 14.4376ZM9.81429 13.1248C10.3385 13.6536 10.3932 13.7676 10.2109 13.9499C10.0422 14.1186 9.94648 14.0684 9.40405 13.5305L8.88896 13.02L9.08042 12.824C9.18525 12.7146 9.28554 12.628 9.29921 12.628C9.31288 12.628 9.54535 12.8514 9.81429 13.1248ZM22.9192 12.824L23.1107 13.02L22.5955 13.5305C22.2856 13.8405 22.0486 14.0411 21.9939 14.0411C21.8298 14.0411 21.6976 13.9134 21.6976 13.7584C21.6976 13.6399 21.7751 13.5351 22.1854 13.1248C22.4543 12.8514 22.6868 12.628 22.7004 12.628C22.7141 12.628 22.8143 12.7146 22.9192 12.824ZM16.5285 14.9892C16.9161 15.1852 17.2306 15.682 17.2306 16.0923C17.2306 16.5709 16.8248 17.1133 16.3645 17.2501C16.0591 17.3412 15.9405 17.3412 15.6352 17.2501C15.1611 17.1088 14.7691 16.5709 14.7691 16.0649C14.7691 15.5909 15.1839 15.0621 15.6762 14.9026C15.8676 14.8387 16.3281 14.8889 16.5285 14.9892ZM8.44226 15.6683L8.65649 15.878L8.54254 15.9646C8.34654 16.1242 8.01378 16.6347 7.89983 16.9629C7.57619 17.9019 7.81323 18.9002 8.51975 19.5702C8.80692 19.8392 9.322 20.1491 9.48154 20.1491C9.51801 20.1491 9.52712 20.1855 9.50889 20.2494C9.49066 20.3086 9.46787 20.4545 9.44963 20.5731C9.42228 20.7827 9.41773 20.7919 9.30377 20.7644C9.08042 20.7098 8.62459 20.4681 8.34654 20.2585C7.42578 19.5702 6.95172 18.344 7.17507 17.2318C7.27991 16.7076 7.57619 16.1059 7.90895 15.7367C8.05025 15.5817 8.18244 15.4541 8.19611 15.4541C8.20979 15.4541 8.32375 15.5498 8.44226 15.6683ZM18.9307 16.7076L19.815 17.3458L19.6282 17.3959C19.0219 17.56 18.8031 17.7333 16.9115 19.5975L15.2933 21.1884L15.2659 20.7735C15.2112 20.026 14.956 19.4653 14.4318 18.9366C13.9258 18.4352 13.4107 18.1845 12.6586 18.0843L12.2575 18.0295L13.1509 17.1726C13.666 16.6712 14.0489 16.3384 14.058 16.3749C14.0671 16.4068 14.099 16.5253 14.1309 16.6393C14.2631 17.1407 14.6825 17.6375 15.1566 17.8517C16.3645 18.4079 17.7229 17.6785 17.9279 16.3658C17.9553 16.1925 17.9917 16.0512 18.0101 16.0558C18.0283 16.0649 18.4431 16.3566 18.9307 16.7076ZM10.0057 17.8563C10.1698 18.3668 10.302 18.8089 10.302 18.8409C10.302 18.8773 10.2564 18.9411 10.2063 18.9913C10.1516 19.0369 10.0468 19.1645 9.97383 19.2694C9.9009 19.3787 9.80974 19.4653 9.76871 19.4653C9.61828 19.4653 9.14879 19.1645 8.93456 18.932C8.62459 18.5948 8.50608 18.2711 8.50608 17.7788C8.50152 17.437 8.51975 17.3549 8.64738 17.086C8.72487 16.9219 8.87529 16.6985 8.98013 16.5937L9.17158 16.4022L9.44052 16.6666L9.70489 16.9355L10.0057 17.8563ZM23.1153 16.694C23.6713 17.4005 23.6395 18.3122 23.0331 18.9686C22.8919 19.119 22.7643 19.2238 22.7461 19.2056C22.7277 19.1873 22.6777 19.0642 22.6321 18.9411C22.5318 18.6585 22.4133 18.4626 22.1672 18.1618L21.9802 17.9246L22.1352 17.4324C22.2811 16.9766 22.313 16.9173 22.55 16.6757C22.787 16.4341 22.8098 16.4205 22.901 16.4797C22.9556 16.5162 23.0515 16.6119 23.1153 16.694ZM21.023 18.2209C21.4104 18.4033 21.7113 18.7041 21.8936 19.0915C22.0259 19.3651 22.0395 19.438 22.0395 19.8072C22.035 20.3725 21.9164 20.6687 21.5426 21.038C20.9683 21.6123 20.2617 21.7491 19.5735 21.4299C18.4932 20.9239 18.1787 19.6158 18.9216 18.695C19.0995 18.4671 19.3319 18.3076 19.6783 18.1618C19.9017 18.0659 20.002 18.0523 20.3301 18.0614C20.6538 18.0751 20.7677 18.0979 21.023 18.2209ZM13.0552 18.9184C13.9577 19.2283 14.5412 20.0534 14.5412 21.0152C14.5412 22.0043 13.8575 22.8794 12.8774 23.1348C11.9886 23.3627 10.9994 22.9615 10.4889 22.1592C10.2428 21.7764 10.1562 21.4163 10.1744 20.9012C10.1881 20.4864 10.2063 20.4134 10.3613 20.0898C10.6621 19.4562 11.2684 18.964 11.9202 18.8318C12.2347 18.768 12.7316 18.8044 13.0552 18.9184ZM17.9142 20.6322C18.0146 20.9332 18.2151 21.2795 18.4066 21.4801L18.5251 21.6078L17.226 21.6032H15.9314L16.8431 20.7189L17.7547 19.8346L17.7867 20.0944C17.8049 20.2357 17.8642 20.4773 17.9142 20.6322ZM16.1822 23.4766V24.6162H15.9998H15.8175V23.4766V22.3371H15.9998H16.1822V23.4766ZM17.5041 23.7C17.5041 24.9444 17.495 25.072 17.422 25.1632C17.3217 25.2862 17.1257 25.2953 17.0027 25.186C16.9161 25.1085 16.9115 25.0355 16.9115 23.7182V22.3371H17.2078H17.5041V23.7ZM18.5524 23.4766V24.6162H18.3929H18.2334V23.4766V22.3371H18.3929H18.5524V23.4766ZM19.9199 23.7C19.9199 24.9306 19.9108 25.072 19.8425 25.154C19.7011 25.3182 19.5689 25.3227 19.4185 25.1678L19.2818 25.0355V23.6863V22.3371H19.6008H19.9199V23.7ZM15.0016 25.1769C14.8922 25.2862 14.7007 25.2908 14.5868 25.186C14.5002 25.1085 14.4956 25.0401 14.4956 24.0647V23.0299L14.7828 22.7565L15.0654 22.4784L15.0791 23.7866C15.0882 25.0219 15.0836 25.0948 15.0016 25.1769ZM13.7663 24.092V24.6162H13.6067H13.4472V24.1695V23.7228L13.5976 23.6453C13.6751 23.6088 13.7481 23.5724 13.7572 23.5724C13.7617 23.5678 13.7663 23.8048 13.7663 24.092ZM12.7179 24.4839V25.0355L12.5811 25.1678C12.4307 25.3227 12.2985 25.3182 12.1618 25.154C12.0934 25.0765 12.0797 24.9717 12.0797 24.4976V23.9325H12.3988H12.7179V24.4839Z" fill="#5E5E5E" stroke="#C2C2C2" stroke-width="0.1"/>
<path d="M19.7786 18.9089C19.0584 19.2827 19.0629 20.3721 19.7832 20.7413C20.2208 20.9647 20.6811 20.8963 21.0185 20.559C21.6885 19.889 21.2281 18.7812 20.2846 18.7812C20.084 18.7812 19.9609 18.8132 19.7786 18.9089ZM20.5125 19.6018C20.5627 19.6519 20.6036 19.7431 20.6036 19.807C20.6036 19.9482 20.4168 20.1488 20.2846 20.1488C20.1569 20.1488 19.9654 19.9528 19.9654 19.8252C19.9654 19.5653 20.3255 19.4149 20.5125 19.6018Z" fill="#5E5E5E" stroke="#C2C2C2" stroke-width="0.1"/>
<path d="M11.943 20.0174C11.3094 20.2817 11.0997 21.1387 11.5419 21.6766C11.747 21.9227 12.0022 22.0367 12.3532 22.0367C12.7088 22.0367 12.9595 21.9227 13.1646 21.6721C13.5475 21.2071 13.4381 20.4459 12.9367 20.1131C12.7771 20.0083 12.6905 19.99 12.4034 19.9809C12.2119 19.9718 12.0068 19.99 11.943 20.0174ZM12.5811 20.7877C12.7543 20.961 12.6495 21.2527 12.3897 21.3165C12.294 21.3347 12.2393 21.3165 12.1527 21.2253C11.9384 21.0157 12.0569 20.6965 12.3532 20.6965C12.4307 20.6965 12.531 20.7376 12.5811 20.7877Z" fill="#5E5E5E" stroke="#C2C2C2" stroke-width="0.1"/>
</svg>
